<svg xmlns="http://www.w3.org/2000/svg" viewBox="0 0 800 600">
  <defs>
    <linearGradient id="bg-clock" x1="0" y1="0" x2="1" y2="1">
      <stop offset="0%" stop-color="#1f2937" />
      <stop offset="100%" stop-color="#111827" />
    </linearGradient>
    <linearGradient id="gear" x1="0" y1="0" x2="1" y2="1">
      <stop offset="0%" stop-color="#f59e0b" />
      <stop offset="100%" stop-color="#d97706" />
    </linearGradient>
  </defs>
  <rect width="800" height="600" fill="url(#bg-clock)" />
  <circle cx="400" cy="320" r="220" fill="none" stroke="#fbbf24" stroke-width="20" opacity="0.35" />
  <g transform="translate(190 140)">
    <circle cx="140" cy="180" r="110" fill="url(#gear)" />
    <g stroke="#78350f" stroke-width="14" stroke-linecap="round">
      <line x1="140" y1="90" x2="140" y2="270" />
      <line x1="50" y1="180" x2="230" y2="180" />
      <line x1="90" y1="120" x2="190" y2="240" />
      <line x1="190" y1="120" x2="90" y2="240" />
    </g>
  </g>
  <g transform="translate(360 200)">
    <circle cx="180" cy="120" r="80" fill="#60a5fa" opacity="0.8" />
    <g stroke="#1e3a8a" stroke-width="12" stroke-linecap="round">
      <line x1="180" y1="60" x2="180" y2="180" />
      <line x1="120" y1="120" x2="240" y2="120" />
      <line x1="135" y1="75" x2="225" y2="165" />
      <line x1="225" y1="75" x2="135" y2="165" />
    </g>
  </g>
  <circle cx="400" cy="320" r="18" fill="#fbbf24" />
  <path d="M400 120v80" stroke="#fbbf24" stroke-width="12" stroke-linecap="round" />
  <path d="M400 440v80" stroke="#fbbf24" stroke-width="12" stroke-linecap="round" />
</svg>
