<svg width="128" height="128" viewBox="0 0 128 128" xmlns="http://www.w3.org/2000/svg" role="img" aria-labelledby="avatarTitle">
  <title id="avatarTitle">Explorer avatar</title>
  <defs>
    <linearGradient id="grad" x1="0%" y1="0%" x2="100%" y2="100%">
      <stop offset="0%" stop-color="#7c5cf4" />
      <stop offset="100%" stop-color="#4fc3f7" />
    </linearGradient>
  </defs>
  <circle cx="64" cy="64" r="60" fill="url(#grad)" />
  <circle cx="64" cy="54" r="28" fill="#ffe7d6" />
  <path d="M64 90c-16 0-32 8-36 24h72c-4-16-20-24-36-24z" fill="#1a2333" />
  <path d="M44 56c0-6 4-10 10-10" stroke="#1a2333" stroke-width="6" stroke-linecap="round" />
  <path d="M84 56c0-6-4-10-10-10" stroke="#1a2333" stroke-width="6" stroke-linecap="round" />
  <path d="M56 74c4 4 12 4 16 0" stroke="#e85a8b" stroke-width="6" stroke-linecap="round" />
  <path d="M32 58c0-22 14-36 32-36s32 14 32 36" stroke="#1a2333" stroke-width="10" stroke-linecap="round" />
</svg>
