<svg xmlns="http://www.w3.org/2000/svg" viewBox="0 0 800 600">
  <defs>
    <linearGradient id="bg-wall" x1="0" y1="0" x2="1" y2="1">
      <stop offset="0%" stop-color="#0f172a" />
      <stop offset="100%" stop-color="#1e293b" />
    </linearGradient>
    <linearGradient id="hills" x1="0" y1="0" x2="1" y2="0">
      <stop offset="0%" stop-color="#1b4332" />
      <stop offset="100%" stop-color="#386641" />
    </linearGradient>
    <linearGradient id="wall" x1="0" y1="0" x2="0" y2="1">
      <stop offset="0%" stop-color="#d4a373" />
      <stop offset="100%" stop-color="#b07d48" />
    </linearGradient>
  </defs>
  <rect width="800" height="600" fill="url(#bg-wall)" />
  <path d="M0 420c120-120 240-160 360-120s240 20 360-80v280H0z" fill="url(#hills)" opacity="0.8" />
  <path d="M120 360c80-40 160-60 240-40s160 20 240-40l80 40v160H120z" fill="url(#wall)" />
  <g fill="none" stroke="#8c5722" stroke-width="12" stroke-linecap="round">
    <path d="M140 360v-60l60-20v60" />
    <path d="M260 320v-70l60-10v70" />
    <path d="M380 340v-80l60-10v70" />
    <path d="M500 300v-80l60-20v70" />
    <path d="M620 280v-90l60-30v100" />
  </g>
  <path d="M120 360h520" stroke="#8c5722" stroke-width="16" stroke-linecap="round" />
  <path d="M0 480h800" stroke="#0b111f" stroke-width="40" opacity="0.4" />
</svg>
