<svg xmlns="http://www.w3.org/2000/svg" viewBox="0 0 320 420" role="img" aria-labelledby="title desc">
  <title id="title">Harriet Tubman Cover</title>
  <desc id="desc">Abstract illustration of Harriet Tubman holding a lantern with guiding stars.</desc>
  <defs>
    <linearGradient id="night" x1="0" y1="0" x2="0" y2="1">
      <stop offset="0%" stop-color="#0b1a33" />
      <stop offset="100%" stop-color="#091123" />
    </linearGradient>
  </defs>
  <rect width="320" height="420" fill="url(#night)" rx="24" />
  <circle cx="254" cy="84" r="36" fill="#f8f4d9" opacity="0.85" />
  <path d="M88 320c14-52 44-90 74-90s60 38 74 90" fill="#162239" />
  <path d="M112 172c0-40 20-64 50-64s50 24 50 64-20 64-50 64-50-24-50-64z" fill="#f1d6a2" />
  <path d="M104 196c28-18 102-20 134 0-8 34-34 54-67 54s-59-20-67-54z" fill="#412a1f" />
  <path d="M118 164c12-6 18-10 28-10" stroke="#452a1e" stroke-width="6" stroke-linecap="round" />
  <path d="M194 154c10 0 16 4 24 10" stroke="#452a1e" stroke-width="6" stroke-linecap="round" />
  <circle cx="144" cy="174" r="10" fill="#231004" />
  <circle cx="204" cy="174" r="10" fill="#231004" />
  <path d="M150 210c12 10 28 10 40 0" fill="none" stroke="#1b0f05" stroke-width="5" stroke-linecap="round" />
  <g transform="translate(70 250)">
    <rect x="0" y="0" width="42" height="78" rx="12" fill="#f6d87c" />
    <rect x="8" y="12" width="26" height="34" fill="#fffbf0" />
    <path d="M21 78v34" stroke="#f6d87c" stroke-width="10" stroke-linecap="round" />
  </g>
  <path d="M92 252c-16-18-32-28-44-12-10 12-4 26 10 34" fill="none" stroke="#6fb1ff" stroke-width="4" stroke-linecap="round" />
  <g fill="#f8f3c6">
    <circle cx="56" cy="92" r="4" />
    <circle cx="90" cy="70" r="3" />
    <circle cx="130" cy="90" r="3" />
    <circle cx="160" cy="62" r="2.5" />
    <circle cx="210" cy="112" r="2.5" />
    <circle cx="120" cy="36" r="2.5" />
  </g>
  <text x="36" y="368" fill="#fefcf3" font-family="'Futura', 'Avenir', sans-serif" font-size="26" font-weight="600">HARRIET</text>
  <text x="36" y="400" fill="#9fb8ff" font-family="'Futura', 'Avenir', sans-serif" font-size="20" letter-spacing="4">TUBMAN</text>
</svg>
