<svg xmlns="http://www.w3.org/2000/svg" viewBox="0 0 800 600">
  <defs>
    <linearGradient id="bg-mesa" x1="0" y1="0" x2="0" y2="1">
      <stop offset="0%" stop-color="#0b1d3a" />
      <stop offset="100%" stop-color="#1f3a5c" />
    </linearGradient>
    <linearGradient id="mesa" x1="0" y1="0" x2="1" y2="0">
      <stop offset="0%" stop-color="#b56521" />
      <stop offset="100%" stop-color="#d88c45" />
    </linearGradient>
  </defs>
  <rect width="800" height="600" fill="url(#bg-mesa)" />
  <g fill="#fff9c4" opacity="0.8">
    <circle cx="160" cy="120" r="3" />
    <circle cx="220" cy="90" r="2" />
    <circle cx="300" cy="130" r="4" />
    <circle cx="360" cy="80" r="3" />
    <circle cx="430" cy="140" r="2" />
    <circle cx="500" cy="70" r="3" />
    <circle cx="560" cy="110" r="2" />
    <circle cx="620" cy="90" r="4" />
    <circle cx="680" cy="140" r="3" />
  </g>
  <path d="M0 420h800v180H0z" fill="#132a44" />
  <path d="M80 380c120-80 240-120 360-100s220 60 360 20v200H0z" fill="url(#mesa)" />
  <rect x="180" y="320" width="120" height="120" rx="10" fill="#8c4a1a" />
  <rect x="470" y="300" width="150" height="140" rx="12" fill="#8c4a1a" />
  <rect x="210" y="350" width="60" height="80" fill="#461f08" />
  <rect x="520" y="340" width="70" height="80" fill="#461f08" />
  <polyline points="260 240 320 280 380 220 460 280 520 240" fill="none" stroke="#fcd34d" stroke-width="10" stroke-linecap="round" stroke-linejoin="round" />
  <circle cx="320" cy="280" r="12" fill="#fcd34d" />
  <circle cx="460" cy="280" r="12" fill="#fcd34d" />
</svg>
