<svg xmlns="http://www.w3.org/2000/svg" viewBox="0 0 320 420" role="img" aria-labelledby="title desc">
  <title id="title">Pokémon GO Adventure Cover</title>
  <desc id="desc">Phone showing a creature on a park path.</desc>
  <defs>
    <linearGradient id="sky" x1="0" y1="0" x2="0" y2="1">
      <stop offset="0%" stop-color="#1b3c7d" />
      <stop offset="100%" stop-color="#0d2348" />
    </linearGradient>
  </defs>
  <rect width="320" height="420" rx="24" fill="url(#sky)" />
  <path d="M0 280h320v140H0z" fill="#183019" />
  <path d="M0 300c60-30 120-30 180 0s120 30 180 0v120H0z" fill="#254a1f" />
  <g transform="translate(90 70)">
    <rect x="0" y="0" width="140" height="280" rx="22" fill="#121b37" stroke="#7df0ff" stroke-width="3" />
    <rect x="18" y="32" width="104" height="188" rx="16" fill="#1f3264" />
    <circle cx="70" cy="250" r="9" fill="#7df0ff" />
    <circle cx="70" cy="16" r="5" fill="#7df0ff" />
    <path d="M34 220h72" stroke="#7df0ff" stroke-width="3" stroke-linecap="round" />
    <g transform="translate(38 70)">
      <path d="M50 80c-22 0-40-18-40-40s18-40 40-40 40 18 40 40-18 40-40 40z" fill="#f8e458" />
      <path d="M50 66c-14 0-26-12-26-26s12-26 26-26 26 12 26 26-12 26-26 26z" fill="#f2774b" />
      <circle cx="50" cy="40" r="14" fill="#ffffff" />
      <circle cx="50" cy="40" r="6" fill="#2c3f85" />
      <path d="M20 94h60c6 0 10 4 10 10v4H10v-4c0-6 4-10 10-10z" fill="#4bc0ff" />
    </g>
  </g>
  <path d="M30 210l24-36" stroke="#7df0ff" stroke-width="4" stroke-linecap="round" opacity="0.6" />
  <path d="M290 210l-26-32" stroke="#7df0ff" stroke-width="4" stroke-linecap="round" opacity="0.6" />
  <circle cx="45" cy="180" r="6" fill="#ffed73" />
  <circle cx="275" cy="170" r="8" fill="#ffed73" />
</svg>
