<svg xmlns="http://www.w3.org/2000/svg" viewBox="0 0 320 420" role="img" aria-labelledby="title desc">
  <title id="title">Python Coding Camp Cover</title>
  <desc id="desc">Laptop with Python code and friendly snake mascot.</desc>
  <defs>
    <linearGradient id="bg" x1="0" y1="0" x2="0" y2="1">
      <stop offset="0%" stop-color="#1a2858" />
      <stop offset="100%" stop-color="#09163a" />
    </linearGradient>
  </defs>
  <rect width="320" height="420" rx="24" fill="url(#bg)" />
  <g transform="translate(40 200)">
    <rect x="0" y="0" width="240" height="120" rx="16" fill="#101c3f" stroke="#6de1ff" stroke-width="3" />
    <rect x="20" y="18" width="200" height="74" rx="8" fill="#1d2c58" />
    <text x="36" y="52" font-family="monospace" font-size="18" fill="#6de1ff">for step in range(4):</text>
    <text x="36" y="78" font-family="monospace" font-size="18" fill="#f7d75c">    print("dance!")</text>
    <rect x="60" y="94" width="120" height="18" rx="9" fill="#0f1734" stroke="#6de1ff" stroke-width="2" />
  </g>
  <g transform="translate(190 120)">
    <path d="M0 80c0-44 46-80 82-80 18 0 30 6 30 18 0 10-8 18-18 18-6 0-10-2-14-6 10 14 16 32 16 50 0 30-18 54-46 54-28 0-50-24-50-54z" fill="#f7d75c" stroke="#6de1ff" stroke-width="3" />
    <circle cx="62" cy="20" r="6" fill="#09163a" />
    <circle cx="82" cy="20" r="6" fill="#09163a" />
    <path d="M72 32q6 6 12 0" stroke="#09163a" stroke-width="4" stroke-linecap="round" />
  </g>
  <path d="M60 150h200" stroke="#6de1ff" stroke-width="4" stroke-dasharray="12 10" opacity="0.3" />
</svg>
